<svg viewBox="0 0 663.187 712" xmlns="http://www.w3.org/2000/svg">
   <g fill="#95182a">
      <path d="M463.853 429.379L335.56 503.872v145.881l128.294-74.492V429.38M327.277 649.753l-128.296-74.492V429.38l128.296 74.493M404.988 372.199l-69.43 40.309v78.95l69.43-40.315v-78.944M327.277 491.457l-69.28-40.224v-78.772l69.28 40.223"/>
      <path d="M173.12 549.4c.15 104.944 105.428 156.073 157.255 156.23 52.432-.157 157.097-48.146 157.242-156.23V396.388c0-25.11 0-40.525.012-46.685H173.12V549.4zm-6.208 0V343.495h326.913V549.4c-.254 112.79-108.285 162.413-163.45 162.439-54.736-.104-163.16-52.718-163.463-162.439"/>
      <path d="M570.016 237.072l2.655-1.59zm-7.481 8.208l14.696 25.796 9.637-5.736-15.264-25.588zm-8.391-2.17l16.89-10.287 2.655-1.636 21.703 36.276-20.441 12.209zm42.679 40.114l2.654-1.583zm-7.627 8.165l16.405 27.682 9.312-5.554-16.49-27.62zm-8.487-2.15l17.194-10.288 2.629-1.583 22.881 38.301-19.994 11.95zm-97.942.641l2.68-1.564zm-9.214 9.233l15.483 25.947 10.768-6.425-15.448-26.063zm-8.5-2.145l18.782-11.313 2.666-1.636 21.802 36.768-21.388 12.79zm52.015 76.27l11.167-6.657-16.43-27.657-11.214 6.705zm-23.4-27.1l-1.588-2.685 21.896-13.07 22.747 38.373-21.802 12.997-21.253-35.614"/>
      <path d="M470.157 256.453l82.823 139.754 3.577-2.122-8.741-14.792 2.68-1.558 1.588 2.661-1.588-2.661-2.68 1.558-1.565-2.661 15.096-8.979 10.342 17.472 5.952-3.504-10.413-17.576 15.13-8.96 10.403 17.556 4.972-2.945-10.294-17.375 15.132-8.977 10.281 17.373 7.553-4.478-82.834-139.73zm-8.498-2.176l78.093-46.286 89.19 150.424-18.26 10.821-10.294-17.37-4.45 2.633 10.318 17.373-15.69 9.288-10.39-17.575-4.425 2.631 10.414 17.556-16.634 9.876-10.355-17.477-4.437 2.642 10.342 17.472-14.282 8.439-89.14-150.447M87.4 271.087l14.675-25.807-9.044-5.528-15.277 25.588zm-15.49-2.012l-2.673-1.602 21.654-36.281 19.568 11.893-20.792 36.592zm-12.894 49.989l16.41-27.668-9.227-5.504-16.495 27.625zm-15.156-1.807l-2.656-1.606 22.856-38.264 19.877 11.845L61.186 327.6zm133.74-26.29l1.6-2.651zm-12.792 27.668l10.773 6.418 15.495-25.965-10.797-6.503zm-8.487 2.164l20.206-34.09 1.606-2.68 21.454 12.95-21.86 36.61zm-8.79 52.438l16.513-27.62-11.239-6.698-16.404 27.673zm-16.968-2.904l-2.673-1.582 22.75-38.368 21.91 13.07-22.88 38.319-19.107-11.439"/>
      <path d="M124.36 214.91l1.583-2.651zm-5.959 161.722l-10.372 17.453 3.595 2.14 82.835-139.76-67.418-39.969-82.835 139.748 7.565 4.487 10.294-17.375 15.132 8.965-10.318 17.38 4.995 2.93 10.397-17.534 15.132 8.943-10.422 17.587 5.94 3.516 10.343-17.484zm-18.853 19.641l10.343-17.453-4.462-2.65-10.319 17.454-16.635-9.833 10.422-17.556-4.462-2.65-10.398 17.556-15.67-9.276 10.293-17.38-4.43-2.624-10.295 17.38-18.241-10.826 87.575-147.763 1.6-2.648 78.102 46.273-89.158 150.459-14.265-8.463"/>
      <path d="M98.67 298.41l13.73 8.282-19.152 33.615 10.446 6.165 19.097-33.313 13.518 7.537 6.063-9.932-14.567-7.923 8.79-16.549-10.137-5.577-8.71 15.482-13.344-8.02zm6.165 52.337l1.582-2.675zm-19.994-8.198l19.151-33.645-13.67-8.275 11.814-21.06 13.32 8.019 8.608-15.276 20.879 11.483-8.76 16.524 14.901 8.13-12.556 20.599-13.398-7.463-17.598 30.688-1.576 2.754-21.115-12.478M183.764 315.512l4.687-4.05c8.39 9.658 15.853 21.122 32.549 32.591l-3.517 5.098c-17.586-12.058-25.764-24.491-33.719-33.639M560.923 346.467l10.428-6.172-19.11-33.58 13.7-8.287-5.746-10.25-13.35 8.025-8.693-15.495-10.135 5.577 8.802 16.57-14.574 7.928 6.062 9.924 13.496-7.548zm-1.116 4.261l2.692-1.533zm-20.334-29.153l-13.373 7.468-12.56-20.587 14.913-8.13-8.79-16.526 20.89-11.505 8.62 15.293 13.326-8.007 11.809 21.048-13.676 8.263 19.119 33.65-18.356 10.871-2.74 1.614-19.182-33.452M443.63 344.04c16.683-11.47 24.165-22.939 32.542-32.596h.024l4.68 4.061c-7.965 9.174-16.15 21.588-33.705 33.676l-3.54-5.141M296.232 54.312h23.79l.022 26.39h20.163v-26.39h25.341V32.597h-25.341V6.203H320.02v26.394h-23.789zm17.58 32.597V60.515h-23.783V26.396h23.783V.001h32.597v26.395h22.255v3.085-3.085h3.085v34.15h-25.34v26.363h-32.597"/>
      <path d="M453.087 266.408c-11.396-87.236-65.472-147.03-110.794-179.504h-24.637c-47.17 23.879-101.19 111.643-109.515 179.504zm-251.868 6.232l.357-3.427c7.59-71.09 62.763-162.28 113.976-188.184l.643-.333h28.098l.819.588c47.05 33.44 103.828 95.948 114.583 187.881l.412 3.475H201.219"/>
      <path d="M250.832 153.456v-6.203h158.68v6.203h-158.68M219.641 214.096v-6.208H442.14v6.208H219.64M303.252 141.58c-15.496-.201-30.123-8.27-34.59-17.944h.023l5.692-2.45c2.274 6.026 15.703 14.374 28.875 14.167 9.396-.048 18.453-3.625 24.71-14.064l2.553-4.317 2.734 4.215c6.862 10.493 16.44 13.912 26.06 13.985 13.404.333 26.644-8.064 27.335-11.385l5.821 2.145c-3.542 8.07-17.478 15.113-33.156 15.447-9.942.042-20.696-3.498-28.57-13.112-7.28 9.541-17.544 13.313-27.311 13.313h-.176M230.42 183.317c.005.007.012.019.024.026zm100.403.612c-11.398 9.446-30.656 13.18-49.662 13.254-20.744-.103-41.005-4.438-50.717-13.84l4.39-4.42c6.898 7.202 26.558 12.156 46.327 12.057 19.278.073 38.787-4.57 47.34-13.283l1.971-1.962 2.17 1.757c12.791 10.397 30.16 14.199 47.189 14.173 18.793.026 37.077-4.673 47.298-9.293l2.546 5.644c-11.228 5.08-30.008 9.857-49.844 9.857-17.047 0-34.907-3.546-49.008-13.944M330.963 239.055c-13.071 11.082-35.379 15.452-57.712 15.525-26.002-.127-51.876-5.899-63.679-17.447l4.396-4.396c9.013 9.299 34.353 15.738 59.283 15.635 22.654.079 45.133-5.183 55.378-15.58l1.963-1.97 2.17 1.763c15.073 12.266 35.277 16.678 55.277 16.678 23.776 0 47.14-6.304 60.15-12.21l2.546 5.651c-13.943 6.305-37.828 12.743-62.696 12.768-19.975-.025-40.702-4.177-57.076-16.417M331.405 272.633v-3.116zm22.055 60.75l49.99-29.711c-7.494-9.105-10.246-20.496-10.683-31.039h-58.21c.728 29.33 11.591 49.578 18.903 60.75zm-3.516 5.941c-7.765-11.36-21.655-34.828-21.63-69.807v-3.086h70.6v3.086c0 11.568 2.887 24.024 11.567 32.706l2.824 2.813-61.73 36.664-1.631-2.376"/>
      <path d="M309.368 333.377c7.307-11.173 18.159-31.42 18.903-60.744h-58.216c-.442 10.543-3.212 21.934-10.694 31.046zm-59.84-28.341l2.807-2.807c8.7-8.674 11.561-21.15 11.561-32.705v-3.093h67.527v3.093-3.093h3.093v3.093c0 34.972-13.859 58.447-21.637 69.8l-1.662 2.401-61.689-36.689M77.936 569.653c7.656 13.751 22.115 23.116 38.908 23.116 24.648-.054 44.612-19.993 44.66-44.666 0-20.758-14.203-38.035-33.397-43.048l-6.426-1.716 45.226-31.839-.026-23.45-57.846 40.727 3.686-9.548c1.898-4.917 2.995-10.19 3.02-15.72-.05-24.673-20.012-44.636-44.685-44.685-24.675.05-44.643 20.012-44.668 44.685 0 8.196 2.36 15.744 6.245 22.402l1.666 2.89-2.994 1.462c-14.822 7.317-25.11 22.37-25.11 39.974.049 24.674 20.018 44.642 44.691 44.691 8.317 0 16.023-2.43 22.752-6.425l2.74-1.639zm-3.837 5.687c-6.936 3.613-14.786 5.808-23.213 5.784C22.781 581.124 0 558.365 0 530.237c0-18.908 10.414-35.276 25.71-44.018-3.456-6.802-5.54-14.476-5.54-22.71 0-28.097 22.78-50.88 50.886-50.88 28.098 0 50.88 22.783 50.88 50.88 0 3.171-.321 6.256-.904 9.24l52.095-36.648v38.594l-37.406 26.329c18.702 7.48 32.003 25.643 32.003 47.079 0 28.104-22.8 50.886-50.88 50.886-18.06 0-33.755-9.517-42.745-23.649zm419.738-105.556l47.711 33.579-6.475 1.692c-19.205 5.013-33.402 22.29-33.402 43.048.048 24.673 20.017 44.612 44.69 44.666 16.78 0 31.222-9.365 38.895-23.116l1.54-2.812 2.765 1.662c6.73 3.994 14.415 6.425 22.758 6.425 24.649-.05 44.63-20.017 44.653-44.69 0-17.605-10.257-32.658-25.097-39.951l1.382-2.79 2.679 1.559-2.679-1.559-1.382 2.79-2.995-1.486 1.687-2.868c3.89-6.68 6.242-14.228 6.242-22.424-.048-24.673-20.016-44.636-44.666-44.685-24.672.05-44.667 20.012-44.691 44.685 0 5.53 1.128 10.803 3.02 15.744l3.588 9.524-60.223-42.442zm1.612 78.319c.024-21.436 13.302-39.599 32.022-47.079l-39.83-28.015v-38.622l54.512 38.362a47.415 47.415 0 01-.897-9.24c0-28.097 22.781-50.88 50.887-50.88 28.081 0 50.862 22.783 50.886 50.88 0 8.24-2.085 15.92-5.541 22.722 15.29 8.748 25.705 25.104 25.705 44.006 0 28.128-22.794 50.887-50.874 50.887-8.427.024-16.308-2.17-23.243-5.784-8.996 14.132-24.687 23.65-42.715 23.65-28.105 0-50.888-22.783-50.912-50.887"/>
      <path d="M50.753 463.51c0 11.22 9.087 20.307 20.284 20.333 11.227-.026 20.315-9.112 20.315-20.334 0-11.202-9.088-20.29-20.315-20.313-11.197.023-20.284 9.11-20.284 20.313zm-6.239 0c.032-14.64 11.889-26.523 26.523-26.523 14.665 0 26.523 11.882 26.523 26.522 0 14.659-11.858 26.523-26.523 26.547-14.634-.024-26.491-11.888-26.523-26.547M30.56 530.25c.023 11.22 9.105 20.307 20.302 20.333 11.228-.026 20.308-9.112 20.333-20.334-.025-11.221-9.105-20.284-20.333-20.309-11.197.025-20.279 9.088-20.302 20.31zm-6.215 0c.025-14.635 11.89-26.517 26.517-26.517 14.659 0 26.522 11.882 26.547 26.516-.025 14.634-11.888 26.516-26.547 26.54-14.628-.024-26.492-11.906-26.517-26.54M96.517 548.108c.025 11.203 9.087 20.297 20.32 20.321 11.204-.024 20.298-9.118 20.298-20.321 0-11.233-9.094-20.296-20.298-20.32-11.233.024-20.295 9.087-20.32 20.32zm-6.214 0c.024-14.639 11.864-26.533 26.534-26.533 14.641 0 26.511 11.894 26.511 26.533 0 14.641-11.87 26.51-26.511 26.51-14.67 0-26.51-11.869-26.534-26.51M526.052 548.096c0 11.228 9.105 20.303 20.297 20.333 11.228-.03 20.308-9.129 20.308-20.333 0-11.203-9.08-20.301-20.308-20.333-11.192.032-20.297 9.13-20.297 20.333zm-6.22 0c0-14.652 11.87-26.515 26.517-26.515 14.658 0 26.528 11.863 26.528 26.515 0 14.653-11.87 26.517-26.528 26.517-14.648 0-26.517-11.864-26.517-26.517M591.997 530.244c.026 11.232 9.083 20.295 20.322 20.32 11.204-.025 20.296-9.112 20.296-20.32 0-11.204-9.092-20.29-20.296-20.316-11.239.025-20.296 9.112-20.322 20.316zm-6.22 0c.026-14.635 11.883-26.51 26.542-26.51 14.633 0 26.504 11.875 26.504 26.51 0 14.664-11.871 26.54-26.504 26.54-14.659 0-26.516-11.901-26.542-26.54M571.835 463.516c0 11.21 9.081 20.29 20.297 20.315 11.227-.024 20.307-9.106 20.307-20.315 0-11.204-9.08-20.284-20.307-20.316-11.216.032-20.297 9.112-20.297 20.316zm-6.22 0c0-14.659 11.881-26.53 26.517-26.53 14.657 0 26.528 11.871 26.528 26.53s-11.87 26.535-26.528 26.535c-14.636 0-26.517-11.902-26.517-26.535M558.885 240.25c23.776-14.447 41.103-25.062 45.443-27.947 3.832-2.607 5.033-5.499 5.081-8.471-.025-5.473-5.165-10.972-10.33-10.996-1.638.024-3.347.484-5.116 1.71l-1.771-2.529 1.745 2.559c-9.13 6.201-25.182 16.355-45.138 28.663zm-18.55-19.073l2.62-1.606c21.082-13.016 38.142-23.759 47.454-30.106v-.005c2.764-1.923 5.784-2.82 8.67-2.82 9.214.159 16.428 8.263 16.525 17.192.048 4.941-2.485 10.161-7.856 13.665-4.801 3.146-23.147 14.374-48.33 29.675l-2.703 1.612zM387.857 343.495c27.486-16.556 60.926-36.712 93.323-56.251l-9.99-16.867c-45.395 27.3-92.385 55.222-122.598 73.118zm-50.62 6.213h-11.336l9.747-5.777c29.627-17.526 83.575-49.534 135.032-80.488l2.655-1.612 16.344 27.529-2.631 1.612a130506.773 130506.773 0 01-96.753 58.307l-.766.429h-52.292"/>
      <path d="M105.223 247.172c-25.207-15.308-43.553-26.535-48.324-29.693l1.71-2.583 1.71-2.6c4.353 2.879 21.655 13.488 45.436 27.941l10.058-16.993c-19.944-12.313-36.01-22.467-45.11-28.657-1.836-1.248-3.545-1.71-5.177-1.732-5.182.022-10.311 5.509-10.336 10.996.055 2.934 1.25 5.845 5.13 8.445l-1.71 2.6-1.71 2.583c-5.408-3.499-7.96-8.675-7.912-13.628.103-8.931 7.3-17.042 16.538-17.199 2.88 0 5.893.897 8.676 2.808 9.28 6.328 26.353 17.095 47.479 30.11l2.601 1.582-16.404 27.632zm85.526 21.587l1.607-2.655zm125.288 74.73c-30.22-17.902-77.221-45.83-122.616-73.124l-9.99 16.879c32.39 19.557 65.842 39.683 93.353 56.245zm-40.968 6.226l-.74-.462a73573.79 73573.79 0 01-96.746-58.3l-2.632-1.576 14.725-24.854 1.581-2.68 2.68 1.612c51.463 30.917 105.424 62.964 135.043 80.47l9.797 5.79H275.07"/>
   </g>
</svg>